<?xml version="1.0" encoding="UTF-8"?>
<svg xmlns="http://www.w3.org/2000/svg" version="1.1" viewBox="0 0 8503.94 4524.05">
  <!-- Generator: Adobe Illustrator 29.6.1, SVG Export Plug-In . SVG Version: 2.1.1 Build 9)  -->
  <defs>
    <style>
      .st0 {
        mix-blend-mode: darken;
        opacity: .48;
      }

      .st0, .st1 {
        fill: #fff;
      }

      .st2 {
        isolation: isolate;
      }
    </style>
  </defs>
  <g class="st2">
    <g id="Layer_1">
      <g>
        <g>
          <path class="st1" d="M923.39,582.21v-5.09s33.91-35.08,33.91-35.08h5.08c26.61,33.9,69.6,55.92,106.93,55.9,46.37-.03,74.06-21.54,74.04-50.95-.03-44.1-47.54-49.16-101.85-68.91-43.55-15.25-99.56-39.52-99.61-103.98-.04-59.95,51.96-102.96,128.3-103.02,57.68-.04,103.5,23.68,128.98,55.88v5.09s-33.33,35.09-33.33,35.09h-4.53c-19.8-23.17-49.79-43.51-89.95-43.48-38.45.03-65.58,18.71-65.56,46.43.02,31.1,30,42.39,65.07,54.8,62.23,21.44,136.89,38.92,136.95,120.92.05,66.17-57.61,106.36-134.52,106.41-60.51.05-117.08-25.92-149.92-70.01Z"/>
          <path class="st1" d="M1979.8,644.75l-62.77.05-.23-314.42-118.76.09-.04-53.16,300.29-.22.04,53.16-118.75.09.23,314.42Z"/>
          <path class="st1" d="M2776.86,276.58l.16,216.03c.05,61.07,39.66,101.75,99.04,101.71,59.38-.04,98.94-40.79,98.89-101.86l-.16-216.03,61.07-.05.16,214.89c.07,96.14-63.78,159.52-159.92,159.59-97.27.07-161.79-63.22-161.86-159.35l-.16-214.89,62.77-.05Z"/>
          <path class="st1" d="M4034.66,458.86c.08,110.84-75.64,184.41-192.13,184.5l-149.86.11-.27-367.58,149.86-.11c116.49-.09,192.32,73.38,192.4,183.08ZM3970.77,459.47c-.06-79.73-51.57-130.59-129.61-130.53l-85.95.06.2,261.26,85.95-.06c78.04-.06,129.47-50.99,129.41-130.73Z"/>
          <path class="st1" d="M4734.59,275.11l.27,367.58-62.76.05-.27-367.58,62.76-.05Z"/>
          <path class="st1" d="M5371.48,458.43c-.08-109.14,85.25-190.64,197.23-190.72,111.96-.08,197.41,81.29,197.49,190.43s-85.25,190.64-197.21,190.72c-111.98.08-197.43-81.29-197.51-190.43ZM5702.87,458.18c-.06-78.04-58.35-133.98-134.12-133.92-75.22.06-133.44,56.08-133.38,134.12.06,78.04,58.35,133.98,133.58,133.92,75.77-.06,133.98-56.08,133.92-134.12Z"/>
        </g>
        <g>
          <path class="st1" d="M7167.08,0l-574.36.43.86,1157.25-223.26.17-557.49.42-16.02,1137.36c.12,155.63-55.37,288.61-166.31,399.06-110.94,110.42-244.72,165.71-401.26,165.82-156.63.12-289.75-54.97-399.46-165.23-109.68-110.29-164.57-243.19-164.69-398.82l-.85-1137.35-38.36.03-536,.4-1343.29,1v.22c-310.53,2.58-576.71,114.66-798.17,336.48-224.29-223.87-493.78-335.74-808.62-335.5-4.06,0-8.01.23-12.05.27v-.26S.39,1162.6.39,1162.6l.81,1088.85h.17c-.49,14.9-.97,29.8-.95,44.92l.8,1074.34,574.37-.43-.8-1073.6c-.12-155.57,55.28-287.9,166.22-396.87,110.94-108.97,244.73-163.58,401.35-163.69,153.69-.11,286.14,54.97,397.24,165.23,111.1,110.26,166.78,241.71,166.9,394.49l.8,1073.6,574.36-.43-1.02-1362.21v-4.18c110.49-178.32,270.63-267.57,480.56-267.72,155.94-.12,288.61,54.29,397.92,163.1,109.23,108.81,163.97,241.05,164.09,396.63l.8,1073.6,574.37-.43-.8-1074.34c-.16-209.04-48.71-396.68-145.02-563.2l337.73-.25.42,567.63c.24,317.09,111.04,585.99,332.45,806.65,221.41,220.69,490.91,330.82,808.62,330.59,201.35-.15,389.92-49.93,565.75-149.32l.08,102.09c.12,155.97-55.11,288.61-165.62,397.93-110.54,109.26-243.87,164-399.81,164.12l.43,574.36c320.47-.24,590.57-109.53,810.23-327.82,219.64-218.34,329.38-487.52,329.14-807.54l-1.24-1660.4,223.26-.17.38,503.15c.24,317.29,111.03,585.65,332.45,805,221.41,219.35,490.9,328.89,808.62,328.65l-.43-574.36c-156.03.12-289.35-54.37-400.06-163.52-110.71-109.06-166.1-241.65-166.22-397.68l-.37-501.67,565.86-.42-.06-81.19-.37-489.27-565.86.42-.86-1157.25Z"/>
          <circle class="st1" cx="8217.19" cy="3077.4" r="287.17" transform="translate(230.71 6711.78) rotate(-45)"/>
        </g>
        <path class="st0" d="M1948.43,1497.26s332.09,322.77,332.29,598.59c0,0-48.1-322.85,521.87-359.51l-.43-575.83s-444.92-67.33-853.73,336.75Z"/>
        <path class="st0" d="M3752.59,1730.25s-306.88-570.22-895.3-569.78l1806.96-1.35-573.93,570.88-337.73.25Z"/>
        <polygon class="st0" points="5812.83 1158.26 6370.75 1728.3 7734.23 1727.28 7733.8 1156.82 5812.83 1158.26"/>
        <path class="st0" d="M5797.55,3285.55s574.11-337.71,573.68-907.74l.79,1057.55s6.07,411.9-286.64,716.32c0,0-226.84,347.48-852.76,372.37l-.43-574.36s571.65,40.9,565.36-664.14Z"/>
        <path class="st0" d="M1127.75,1161.76S254.02,1104.4.27,2097.55l-.7-934.95,1128.18-.84Z"/>
      </g>
    </g>
  </g>
</svg>